# xmcd
#
# Track frame offsets:
# 150
# 16758
# 28413
# 41324
# 55368
# 69469
# 85893
# 100755
# 114755
# 127488
# 141010
# 157954
# 170922
# 187304
# 199612
# 211043
# 225831
#
# Disc length: 3174 seconds
#
#
# Revision: 0
# Processed by: cddbd v1.5.2PL0 Copyright (c) Steve Scherf et al.
# Submitted via: FreeRIP 2.944 
#
DISCID=e50c6411
DTITLE=Michel Teló - balada setaneja
DYEAR=2009
DGENRE=Setanejo
TTITLE0=Larga de bobeira ( Com João Bosco e Vinicius)
TTITLE1=Ei, Psiu !! Beija me liga !!
TTITLE2=Faz de Difícil
TTITLE3=Orelhão
TTITLE4=Amanhã sei lá
TTITLE5=Seu Coração não tem dó do meu - Eu hoje entrego os pontos
TTITLE6=Ponto Certo
TTITLE7=Gotas de água doce
TTITLE8=Explodiu !!!
TTITLE9=Você vai pirar
TTITLE10=Horizonte
TTITLE11=Balada Sertaneja
TTITLE12=Cai na real - Não olhe assim
TTITLE13=Assume logo
TTITLE14=Cilada
TTITLE15=Pai, Mãe
TTITLE16=Ei, Psiu !! Beija me liga !!
EXTD=
EXTT0=
EXTT1=
EXTT2=
EXTT3=
EXTT4=
EXTT5=
EXTT6=
EXTT7=
EXTT8=
EXTT9=
EXTT10=
EXTT11=
EXTT12=
EXTT13=
EXTT14=
EXTT15=
EXTT16=
PLAYORDER=
